<!--?xml version="1.0" encoding="utf-8"?-->
<!-- Generator: Adobe Illustrator 15.1.0, SVG Export Plug-In . SVG Version: 6.00 Build 0)  -->

<svg version="1.1" id="_x32_" xmlns="http://www.w3.org/2000/svg" xmlns:xlink="http://www.w3.org/1999/xlink" x="0px" y="0px" width="512px" height="512px" viewBox="0 0 512 512" style="width: 256px; height: 256px; opacity: 1;" xml:space="preserve">
<style type="text/css">

	.st0{fill:#4B4B4B;}

</style>
<g>
	<path class="st0" d="M483.813,218.875c-0.688-2.172-1.75-4.656-3.969-7.063c9.094-11.141,15.594-25.547,15.594-45.5
		c0-45.813-21.5-59.188-45.531-86.641C411.063,35.281,343.531,0,256,0S100.906,35.281,62.063,79.672
		c-24,27.453-45.5,40.828-45.5,86.641c0,22.406,8.156,37.844,19.063,49.469c-1.031,2.031-1.563,3.984-1.938,5.813
		c-0.469,2.641-0.625,5.203-0.625,7.875c0.031,6.922,1.031,14.781,2.313,23.328c1.344,8.516,3,17.609,4.438,26.266
		c2.344,14.031,4.531,40.375,7.156,48.375c2,5.969,4.281,10.859,7.469,15.031c2.406,3.094,5.313,5.656,8.406,7.469
		c4.656,2.75,9.094,3.844,13.25,4.875c2.125,0.516,4.25,1,6.438,1.547c3.094,19.531,7.313,22.766,13.594,41.266
		c5.313,15.641,12.094,30.625,20.844,44.359c13.125,20.594,30.875,38.375,54.375,50.734C194.813,505.109,223.781,512,259.094,512
		c31.375,0,57.531-5.547,79.188-15.641c16.25-7.547,29.906-17.641,41.219-29.453c17.031-17.719,28.906-39.219,37.719-62.109
		c7.969-20.734,13.531-26.484,18.094-48.328c3.094-0.797,6.063-1.453,9.125-2.25c3.719-0.969,7.813-2.25,11.906-4.906
		c3.063-1.969,5.875-4.688,8.156-7.906c3.438-4.844,5.781-10.578,7.906-17.906c2.094-7.328,3.969-32.625,5.969-44.438
		c1.438-8.656,3.094-17.75,4.406-26.266c1.281-8.547,2.313-16.406,2.313-23.328c0-2.031-0.094-4-0.344-6
		C484.563,221.969,484.281,220.469,483.813,218.875z M459.938,249.266c-1.25,8.078-2.875,17.109-4.344,25.984
		c-2.25,13.469-4.344,38.938-6.313,44.906c-1.5,4.5-2.875,6.984-3.844,8.203c-0.75,0.922-1.188,1.281-1.906,1.734
		c-1,0.625-3.156,1.391-6.875,2.281c-3.688,0.891-8.75,1.953-14.813,3.906l-6.438,2.094L414.063,345
		c-4.188,20.922-9.094,25.375-15.781,44.406c-5.031,14.313-11.094,27.688-18.531,39.625c-11.219,17.906-25.406,32.594-44.594,43.063
		c-19.219,10.438-43.75,16.781-76.063,16.813c-28.75-0.016-51.688-4.969-70.219-13.313c-13.938-6.297-25.438-14.516-35.188-24.313
		c-14.625-14.719-25.281-33.156-33.188-54.063c-7.875-20.844-12.906-27.859-16.281-51.594l-1.031-7.125l-6.875-2.219
		c-7.188-2.313-12.938-3.406-16.688-4.391c-2.875-0.734-4.375-1.391-5.219-1.953c-0.656-0.438-1.125-0.844-1.938-1.906
		c-1.156-1.594-2.813-4.969-4.5-10.906c-1.719-5.938-3.469-30.516-5.375-41.875c-1.469-8.875-3.125-17.906-4.375-25.984
		c-1-6.328-1.688-12.094-1.938-16.484c7.594,5.063,15.031,9.375,21.094,13.594c11.938,3.469,17.719-21.938,17.719-50.813
		c0-37.469-1.813-65.031,19.25-103.172C163.594,3.078,256,15.406,256,15.406s92.375-12.328,141.656,76.984
		c21.063,38.141,19.25,65.703,19.25,103.172c0,28.875,5.781,54.281,17.719,50.813c7.719-5.391,17.688-10.906,27.375-17.984
		c0,0.344,0,0.703,0,1.078C462.031,234.016,461.219,241.219,459.938,249.266z" style="fill: rgb(75, 75, 75);"></path>
	<path class="st0" d="M201.594,264.656c17.313,0.656,11.813-6.5,11.813-6.5c-42.5-7.344-67.156,0.625-71.719,1.984
		c-3.531,1.016-0.25,6.922,4.344,7.078c4.625,0.188,17.313,0.656,17.313,0.656s-0.719,19.625,16.594,20.25
		C197.25,288.781,200.313,268.094,201.594,264.656z" style="fill: rgb(75, 75, 75);"></path>
	<path class="st0" d="M373.281,260.141c-4.563-1.359-29.219-9.328-71.719-1.984c0,0-5.5,7.156,11.781,6.5
		c1.313,3.438,4.406,24.125,21.688,23.469c17.313-0.625,16.594-20.25,16.594-20.25s12.688-0.469,17.313-0.656
		C373.531,267.063,376.781,261.156,373.281,260.141z" style="fill: rgb(75, 75, 75);"></path>
	<path class="st0" d="M259.063,366.156c10.813,1.547,20.031-9.25,4.656-9.25c-20.031,0-32.344-9.219-29.281-20
		c0,0-6.156-6.172-6.156,7.688C228.281,358.469,248.313,364.625,259.063,366.156z" style="fill: rgb(75, 75, 75);"></path>
	<path class="st0" d="M189.781,393.891c4.625-1.203,27.719-32.359,27.719-32.359C206.719,366.328,185.156,395.094,189.781,393.891z" style="fill: rgb(75, 75, 75);"></path>
	<path class="st0" d="M303.094,361.531c0,0,23.094,31.156,27.719,32.359S313.875,366.328,303.094,361.531z" style="fill: rgb(75, 75, 75);"></path>
	<path class="st0" d="M262.188,420.859c-21.438-5.109-21.938,0.406-26.188,0.734c-9.5,0.719-4.75,4.375,0,4.375
		s26.188,0.734,26.188,0.734s21.375-0.734,26.156-0.734c4.75,0,9.5-3.656,0-4.375C284.094,421.266,283.563,415.75,262.188,420.859z" style="fill: rgb(75, 75, 75);"></path>
	<path class="st0" d="M214.156,220.063c1.469-4.656-0.125-7.688-17.125-8.906c-16.938-1.203-29.219,0.594-35.406,0.719
		c-6.125,0.125-1.375,6.188-1.375,6.188C180.219,217.656,212.719,224.719,214.156,220.063z" style="fill: rgb(75, 75, 75);"></path>
	<path class="st0" d="M355,218.063c0,0,4.75-6.063-1.406-6.188c-6.188-0.125-18.469-1.922-35.438-0.719
		c-16.969,1.219-18.563,4.25-17.094,8.906C302.5,224.719,334.969,217.656,355,218.063z" style="fill: rgb(75, 75, 75);"></path>
</g>
</svg>
